<svg width="320" height="320" viewBox="0 0 320 320" xmlns="http://www.w3.org/2000/svg">
<style>
  path { fill: #000000; }
  @media (prefers-color-scheme: dark) {
    path { fill: #ffffff; }
  }
</style>
<path fill-rule="evenodd" clip-rule="evenodd" d="M80 251.765C96.0665 251.765 109.091 239.123 109.091 223.529L109.091 174.118L58.1819 174.118C42.1154 174.118 29.0909 186.759 29.0909 202.353L29.091 223.529C29.091 239.123 42.1154 251.765 58.1819 251.765L80 251.765ZM109.091 145.882L58.1819 145.882C26.0489 145.882 1.79396e-05 171.165 2.06661e-05 202.353L2.25174e-05 223.529C2.5244e-05 254.717 26.0489 280 58.1819 280L80 280C112.133 280 138.182 254.717 138.182 223.529L138.182 174.118L181.818 174.118L181.818 265.882L210.909 265.882L210.909 174.118L261.818 174.118C293.951 174.118 320 148.835 320 117.647L320 96.4705C320 65.2827 293.951 40 261.818 40L240 40C207.867 40 181.818 65.2827 181.818 96.4706L181.818 145.882L138.182 145.882L138.182 54.1176L109.091 54.1176L109.091 145.882ZM210.909 145.882L261.818 145.882C277.885 145.882 290.909 133.241 290.909 117.647L290.909 96.4705C290.909 80.8766 277.885 68.2353 261.818 68.2353L240 68.2353C223.933 68.2353 210.909 80.8766 210.909 96.4706L210.909 145.882Z" fill="white"/>
</svg>
