<svg width="240" height="240" viewBox="0 0 240 240" fill="none" xmlns="http://www.w3.org/2000/svg">
<path d="M67.7216 128V110.545H78.9034V113.196H70.8835V117.935H78.1364V120.585H70.8835V128H67.7216ZM84.133 110.545V128H81.0477V110.545H84.133ZM90.4726 128.264C89.643 128.264 88.8959 128.116 88.2311 127.821C87.572 127.52 87.0493 127.077 86.6629 126.491C86.2822 125.906 86.0919 125.185 86.0919 124.327C86.0919 123.588 86.2283 122.977 86.501 122.494C86.7737 122.011 87.1459 121.625 87.6175 121.335C88.0891 121.045 88.6203 120.827 89.2112 120.679C89.8078 120.526 90.4243 120.415 91.0607 120.347C91.8277 120.267 92.4499 120.196 92.9271 120.134C93.4044 120.065 93.751 119.963 93.9669 119.827C94.1885 119.685 94.2993 119.466 94.2993 119.17V119.119C94.2993 118.477 94.1089 117.98 93.7283 117.628C93.3476 117.276 92.7993 117.099 92.0834 117.099C91.3277 117.099 90.7283 117.264 90.2851 117.594C89.8476 117.923 89.5521 118.312 89.3987 118.761L86.518 118.352C86.7453 117.557 87.1203 116.892 87.643 116.358C88.1658 115.818 88.805 115.415 89.5607 115.148C90.3163 114.875 91.1516 114.739 92.0663 114.739C92.697 114.739 93.3249 114.812 93.9499 114.96C94.5749 115.108 95.1459 115.352 95.6629 115.693C96.18 116.028 96.5947 116.486 96.9072 117.065C97.2254 117.645 97.3845 118.369 97.3845 119.239V128H94.4186V126.202H94.3163C94.1288 126.565 93.8646 126.906 93.5237 127.224C93.1885 127.537 92.7652 127.79 92.2538 127.983C91.7482 128.17 91.1544 128.264 90.4726 128.264ZM91.2737 125.997C91.893 125.997 92.43 125.875 92.8845 125.631C93.3391 125.381 93.6885 125.051 93.9328 124.642C94.1828 124.233 94.3078 123.787 94.3078 123.304V121.761C94.2112 121.841 94.0464 121.915 93.8135 121.983C93.5862 122.051 93.3305 122.111 93.0464 122.162C92.7624 122.213 92.4811 122.259 92.2027 122.298C91.9243 122.338 91.6828 122.372 91.4783 122.401C91.018 122.463 90.6061 122.565 90.2425 122.707C89.8788 122.849 89.5919 123.048 89.3817 123.304C89.1714 123.554 89.0663 123.878 89.0663 124.276C89.0663 124.844 89.2737 125.273 89.6885 125.562C90.1033 125.852 90.6317 125.997 91.2737 125.997ZM110.233 118.369L107.421 118.676C107.341 118.392 107.202 118.125 107.003 117.875C106.81 117.625 106.549 117.423 106.219 117.27C105.89 117.116 105.486 117.04 105.009 117.04C104.367 117.04 103.827 117.179 103.39 117.457C102.958 117.736 102.745 118.097 102.75 118.54C102.745 118.92 102.884 119.23 103.168 119.469C103.458 119.707 103.935 119.903 104.6 120.057L106.833 120.534C108.071 120.801 108.992 121.224 109.594 121.804C110.202 122.384 110.509 123.142 110.515 124.08C110.509 124.903 110.267 125.631 109.79 126.261C109.319 126.886 108.662 127.375 107.821 127.727C106.981 128.08 106.015 128.256 104.924 128.256C103.321 128.256 102.032 127.92 101.054 127.25C100.077 126.574 99.4947 125.634 99.3072 124.429L102.316 124.139C102.452 124.73 102.742 125.176 103.185 125.477C103.628 125.778 104.205 125.929 104.915 125.929C105.648 125.929 106.236 125.778 106.679 125.477C107.128 125.176 107.353 124.804 107.353 124.361C107.353 123.986 107.208 123.676 106.918 123.432C106.634 123.187 106.191 123 105.588 122.869L103.356 122.401C102.1 122.139 101.171 121.699 100.569 121.08C99.9663 120.455 99.668 119.665 99.6737 118.71C99.668 117.903 99.8868 117.205 100.33 116.614C100.779 116.017 101.401 115.557 102.196 115.233C102.998 114.903 103.921 114.739 104.966 114.739C106.5 114.739 107.708 115.065 108.588 115.719C109.475 116.372 110.023 117.256 110.233 118.369ZM115.271 123.892L115.263 120.168H115.757L120.462 114.909H124.067L118.28 121.352H117.64L115.271 123.892ZM112.459 128V110.545H115.544V128H112.459ZM120.675 128L116.413 122.043L118.493 119.869L124.365 128H120.675ZM131.012 128V110.545H137.694C138.955 110.545 140.004 110.744 140.839 111.142C141.68 111.534 142.308 112.071 142.722 112.753C143.143 113.435 143.353 114.207 143.353 115.071C143.353 115.781 143.217 116.389 142.944 116.895C142.671 117.395 142.305 117.801 141.845 118.114C141.384 118.426 140.87 118.651 140.302 118.787V118.957C140.921 118.991 141.515 119.182 142.083 119.528C142.657 119.869 143.126 120.352 143.489 120.977C143.853 121.602 144.035 122.358 144.035 123.244C144.035 124.148 143.816 124.96 143.379 125.682C142.941 126.398 142.282 126.963 141.401 127.378C140.521 127.793 139.413 128 138.078 128H131.012ZM134.174 125.358H137.575C138.722 125.358 139.549 125.139 140.055 124.702C140.566 124.259 140.822 123.69 140.822 122.997C140.822 122.48 140.694 122.014 140.438 121.599C140.183 121.179 139.819 120.849 139.347 120.611C138.876 120.366 138.313 120.244 137.66 120.244H134.174V125.358ZM134.174 117.969H137.302C137.847 117.969 138.339 117.869 138.776 117.67C139.214 117.466 139.558 117.179 139.808 116.81C140.063 116.435 140.191 115.991 140.191 115.48C140.191 114.804 139.953 114.247 139.475 113.81C139.004 113.372 138.302 113.153 137.37 113.153H134.174V117.969ZM149.816 128.264C148.987 128.264 148.24 128.116 147.575 127.821C146.916 127.52 146.393 127.077 146.007 126.491C145.626 125.906 145.436 125.185 145.436 124.327C145.436 123.588 145.572 122.977 145.845 122.494C146.117 122.011 146.49 121.625 146.961 121.335C147.433 121.045 147.964 120.827 148.555 120.679C149.152 120.526 149.768 120.415 150.404 120.347C151.171 120.267 151.794 120.196 152.271 120.134C152.748 120.065 153.095 119.963 153.311 119.827C153.532 119.685 153.643 119.466 153.643 119.17V119.119C153.643 118.477 153.453 117.98 153.072 117.628C152.691 117.276 152.143 117.099 151.427 117.099C150.671 117.099 150.072 117.264 149.629 117.594C149.191 117.923 148.896 118.312 148.742 118.761L145.862 118.352C146.089 117.557 146.464 116.892 146.987 116.358C147.51 115.818 148.149 115.415 148.904 115.148C149.66 114.875 150.495 114.739 151.41 114.739C152.041 114.739 152.669 114.812 153.294 114.96C153.919 115.108 154.49 115.352 155.007 115.693C155.524 116.028 155.938 116.486 156.251 117.065C156.569 117.645 156.728 118.369 156.728 119.239V128H153.762V126.202H153.66C153.473 126.565 153.208 126.906 152.867 127.224C152.532 127.537 152.109 127.79 151.598 127.983C151.092 128.17 150.498 128.264 149.816 128.264ZM150.617 125.997C151.237 125.997 151.774 125.875 152.228 125.631C152.683 125.381 153.032 125.051 153.277 124.642C153.527 124.233 153.652 123.787 153.652 123.304V121.761C153.555 121.841 153.39 121.915 153.157 121.983C152.93 122.051 152.674 122.111 152.39 122.162C152.106 122.213 151.825 122.259 151.546 122.298C151.268 122.338 151.027 122.372 150.822 122.401C150.362 122.463 149.95 122.565 149.586 122.707C149.223 122.849 148.936 123.048 148.725 123.304C148.515 123.554 148.41 123.878 148.41 124.276C148.41 124.844 148.617 125.273 149.032 125.562C149.447 125.852 149.975 125.997 150.617 125.997ZM169.577 118.369L166.765 118.676C166.685 118.392 166.546 118.125 166.347 117.875C166.154 117.625 165.892 117.423 165.563 117.27C165.233 117.116 164.83 117.04 164.353 117.04C163.711 117.04 163.171 117.179 162.733 117.457C162.302 117.736 162.088 118.097 162.094 118.54C162.088 118.92 162.228 119.23 162.512 119.469C162.802 119.707 163.279 119.903 163.944 120.057L166.177 120.534C167.415 120.801 168.336 121.224 168.938 121.804C169.546 122.384 169.853 123.142 169.858 124.08C169.853 124.903 169.611 125.631 169.134 126.261C168.662 126.886 168.006 127.375 167.165 127.727C166.324 128.08 165.358 128.256 164.267 128.256C162.665 128.256 161.375 127.92 160.398 127.25C159.421 126.574 158.838 125.634 158.651 124.429L161.66 124.139C161.796 124.73 162.086 125.176 162.529 125.477C162.972 125.778 163.549 125.929 164.259 125.929C164.992 125.929 165.58 125.778 166.023 125.477C166.472 125.176 166.696 124.804 166.696 124.361C166.696 123.986 166.552 123.676 166.262 123.432C165.978 123.187 165.535 123 164.932 122.869L162.699 122.401C161.444 122.139 160.515 121.699 159.912 121.08C159.31 120.455 159.012 119.665 159.017 118.71C159.012 117.903 159.231 117.205 159.674 116.614C160.123 116.017 160.745 115.557 161.54 115.233C162.341 114.903 163.265 114.739 164.31 114.739C165.844 114.739 167.052 115.065 167.932 115.719C168.819 116.372 169.367 117.256 169.577 118.369ZM171.802 128V114.909H174.888V128H171.802ZM173.354 113.051C172.865 113.051 172.444 112.889 172.092 112.565C171.74 112.236 171.564 111.841 171.564 111.381C171.564 110.915 171.74 110.52 172.092 110.196C172.444 109.866 172.865 109.702 173.354 109.702C173.848 109.702 174.268 109.866 174.615 110.196C174.967 110.52 175.143 110.915 175.143 111.381C175.143 111.841 174.967 112.236 174.615 112.565C174.268 112.889 173.848 113.051 173.354 113.051ZM183.17 128.256C181.864 128.256 180.741 127.969 179.804 127.395C178.872 126.821 178.153 126.028 177.648 125.017C177.148 124 176.898 122.83 176.898 121.506C176.898 120.176 177.153 119.003 177.665 117.986C178.176 116.963 178.898 116.168 179.83 115.599C180.767 115.026 181.875 114.739 183.153 114.739C184.216 114.739 185.156 114.935 185.974 115.327C186.798 115.713 187.455 116.261 187.943 116.972C188.432 117.676 188.71 118.5 188.778 119.443H185.83C185.71 118.812 185.426 118.287 184.977 117.866C184.534 117.44 183.94 117.227 183.196 117.227C182.565 117.227 182.011 117.398 181.534 117.739C181.057 118.074 180.685 118.557 180.418 119.188C180.156 119.818 180.026 120.574 180.026 121.455C180.026 122.347 180.156 123.114 180.418 123.756C180.679 124.392 181.045 124.884 181.517 125.23C181.994 125.571 182.554 125.741 183.196 125.741C183.651 125.741 184.057 125.656 184.415 125.486C184.778 125.31 185.082 125.057 185.327 124.727C185.571 124.398 185.739 123.997 185.83 123.526H188.778C188.705 124.452 188.432 125.273 187.96 125.989C187.489 126.699 186.847 127.256 186.034 127.659C185.222 128.057 184.267 128.256 183.17 128.256ZM201.058 118.369L198.246 118.676C198.166 118.392 198.027 118.125 197.828 117.875C197.635 117.625 197.374 117.423 197.044 117.27C196.715 117.116 196.311 117.04 195.834 117.04C195.192 117.04 194.652 117.179 194.215 117.457C193.783 117.736 193.57 118.097 193.575 118.54C193.57 118.92 193.709 119.23 193.993 119.469C194.283 119.707 194.76 119.903 195.425 120.057L197.658 120.534C198.896 120.801 199.817 121.224 200.419 121.804C201.027 122.384 201.334 123.142 201.34 124.08C201.334 124.903 201.092 125.631 200.615 126.261C200.144 126.886 199.487 127.375 198.646 127.727C197.806 128.08 196.84 128.256 195.749 128.256C194.146 128.256 192.857 127.92 191.879 127.25C190.902 126.574 190.32 125.634 190.132 124.429L193.141 124.139C193.277 124.73 193.567 125.176 194.01 125.477C194.453 125.778 195.03 125.929 195.74 125.929C196.473 125.929 197.061 125.778 197.504 125.477C197.953 125.176 198.178 124.804 198.178 124.361C198.178 123.986 198.033 123.676 197.743 123.432C197.459 123.187 197.016 123 196.413 122.869L194.181 122.401C192.925 122.139 191.996 121.699 191.394 121.08C190.791 120.455 190.493 119.665 190.499 118.71C190.493 117.903 190.712 117.205 191.155 116.614C191.604 116.017 192.226 115.557 193.021 115.233C193.823 114.903 194.746 114.739 195.791 114.739C197.325 114.739 198.533 115.065 199.413 115.719C200.3 116.372 200.848 117.256 201.058 118.369Z" fill="black"/>
<circle cx="48" cy="119" r="12" fill="#3b82f6"/>
</svg>
