<svg xmlns="http://www.w3.org/2000/svg" xmlns:xlink="http://www.w3.org/1999/xlink" width="500" zoomAndPan="magnify" viewBox="0 0 375 374.999991" height="500" preserveAspectRatio="xMidYMid meet" version="1.0"><defs><clipPath id="0f2e369c10"><path d="M 0 0 L 375 0 L 375 375 L 0 375 Z M 0 0 " clip-rule="nonzero"/></clipPath><clipPath id="1897731ae2"><rect x="0" width="375" y="0" height="375"/></clipPath><clipPath id="88ad812fa5"><path d="M 100 26 L 328.78125 26 L 328.78125 253 L 100 253 Z M 100 26 " clip-rule="nonzero"/></clipPath><clipPath id="d19540e350"><path d="M 153.375 210.699219 L 135.109375 222.152344 C 151.050781 237.554688 171.210938 248.054688 192.992188 252.285156 L 192.210938 230.84375 C 177.878906 227.28125 164.542969 220.359375 153.386719 210.699219 Z M 180.984375 31.121094 C 120.820312 49.628906 86.929688 113.636719 105.449219 173.800781 C 105.902344 175.28125 106.402344 176.734375 106.914062 178.1875 L 125.066406 166.804688 C 110.535156 117.855469 138.1875 66.054688 187.09375 51.007812 C 236.304688 35.867188 288.644531 63.589844 303.789062 112.796875 C 318.675781 161.191406 292.09375 212.609375 244.394531 228.679688 L 245.179688 250.175781 C 246.160156 249.90625 247.128906 249.648438 248.113281 249.351562 C 308.277344 230.84375 342.167969 166.835938 323.648438 106.671875 C 305.144531 46.507812 241.132812 12.613281 180.96875 31.136719 Z M 180.984375 31.121094 " clip-rule="nonzero"/></clipPath><clipPath id="c825696a67"><path d="M 31.78125 130 L 234 130 L 234 356 L 31.78125 356 Z M 31.78125 130 " clip-rule="nonzero"/></clipPath><clipPath id="3c0947e366"><path d="M 225.617188 354.976562 C 222.726562 355.859375 219.535156 355.601562 216.800781 354.148438 L 37.917969 259.421875 C 34.285156 257.5 31.9375 253.753906 31.78125 249.636719 C 31.621094 245.519531 33.703125 241.613281 37.191406 239.433594 L 208.664062 131.875 C 212.140625 129.695312 216.570312 129.523438 220.203125 131.445312 C 223.835938 133.371094 226.1875 137.117188 226.34375 141.21875 L 233.765625 343.507812 C 233.910156 347.625 231.84375 351.527344 228.367188 353.707031 C 227.511719 354.25 226.585938 354.660156 225.648438 354.945312 Z M 72.410156 254.164062 L 201.796875 322.664062 C 206.511719 325.15625 212.15625 321.625 211.957031 316.296875 L 206.585938 169.996094 C 206.386719 164.667969 200.5 161.550781 195.984375 164.382812 L 71.96875 242.171875 C 67.453125 245.003906 67.695312 251.660156 72.410156 254.152344 Z M 48.261719 257.058594 Z M 219.71875 149.511719 Z M 219.71875 149.511719 " clip-rule="nonzero"/></clipPath></defs><rect x="-37.5" width="450" fill="#ffffff" y="-37.499999" height="449.999989" fill-opacity="1"/><rect x="-37.5" width="450" fill="#ffffff" y="-37.499999" height="449.999989" fill-opacity="1"/><g transform="matrix(1, 0, 0, 1, 0, 0)"><g clip-path="url(#1897731ae2)"><g clip-path="url(#0f2e369c10)"><rect x="-82.5" width="540" fill="#000000" height="539.999987" y="-82.499998" fill-opacity="1"/></g></g></g><g clip-path="url(#88ad812fa5)"><g clip-path="url(#d19540e350)"><path fill="#ffffff" d="M 86.929688 12.613281 L 86.929688 252.285156 L 328.78125 252.285156 L 328.78125 12.613281 Z M 86.929688 12.613281 " fill-opacity="1" fill-rule="nonzero"/></g></g><g clip-path="url(#c825696a67)"><g clip-path="url(#3c0947e366)"><path fill="#ffffff" d="M 31.78125 129.523438 L 31.78125 355.859375 L 233.910156 355.859375 L 233.910156 129.523438 Z M 31.78125 129.523438 " fill-opacity="1" fill-rule="nonzero"/></g></g></svg>