<svg xmlns="http://www.w3.org/2000/svg" xmlns:xlink="http://www.w3.org/1999/xlink" width="500" zoomAndPan="magnify" viewBox="0 0 375 374.999991" height="500" preserveAspectRatio="xMidYMid meet" version="1.0"><defs><clipPath id="dc19773d52"><path d="M 4.152344 4.152344 L 369.128906 4.152344 L 369.128906 369.128906 L 4.152344 369.128906 Z M 4.152344 4.152344 " clip-rule="nonzero"/></clipPath><clipPath id="37167497cf"><path d="M 186.640625 4.152344 C 85.855469 4.152344 4.152344 85.855469 4.152344 186.640625 C 4.152344 287.425781 85.855469 369.128906 186.640625 369.128906 C 287.425781 369.128906 369.128906 287.425781 369.128906 186.640625 C 369.128906 85.855469 287.425781 4.152344 186.640625 4.152344 Z M 186.640625 4.152344 " clip-rule="nonzero"/></clipPath><clipPath id="5e6c5233e2"><path d="M 0.152344 0.152344 L 365.128906 0.152344 L 365.128906 365.128906 L 0.152344 365.128906 Z M 0.152344 0.152344 " clip-rule="nonzero"/></clipPath><clipPath id="ec8979bc94"><path d="M 182.640625 0.152344 C 81.855469 0.152344 0.152344 81.855469 0.152344 182.640625 C 0.152344 283.425781 81.855469 365.128906 182.640625 365.128906 C 283.425781 365.128906 365.128906 283.425781 365.128906 182.640625 C 365.128906 81.855469 283.425781 0.152344 182.640625 0.152344 Z M 182.640625 0.152344 " clip-rule="nonzero"/></clipPath><clipPath id="d678c84cb2"><rect x="0" width="366" y="0" height="366"/></clipPath><clipPath id="92075d23e0"><path d="M 99 29 L 327.546875 29 L 327.546875 256 L 99 256 Z M 99 29 " clip-rule="nonzero"/></clipPath><clipPath id="2fc92513d4"><path d="M 152.144531 213.683594 L 133.878906 225.136719 C 149.820312 240.539062 169.980469 251.039062 191.761719 255.269531 L 190.980469 233.828125 C 176.648438 230.265625 163.3125 223.34375 152.15625 213.683594 Z M 179.753906 34.105469 C 119.589844 52.609375 85.695312 116.621094 104.21875 176.785156 C 104.671875 178.265625 105.171875 179.71875 105.683594 181.171875 L 123.835938 169.789062 C 109.304688 120.835938 136.957031 69.039062 185.863281 53.992188 C 235.070312 38.847656 287.414062 66.574219 302.558594 115.78125 C 317.445312 164.175781 290.863281 215.589844 243.164062 231.660156 L 243.949219 253.160156 C 244.929688 252.890625 245.898438 252.632812 246.882812 252.332031 C 307.046875 233.828125 340.9375 169.816406 322.417969 109.652344 C 303.910156 49.492188 239.902344 15.597656 179.738281 34.117188 Z M 179.753906 34.105469 " clip-rule="nonzero"/></clipPath><clipPath id="a94755ef7e"><path d="M 30.546875 133 L 233 133 L 233 359 L 30.546875 359 Z M 30.546875 133 " clip-rule="nonzero"/></clipPath><clipPath id="e6983df654"><path d="M 224.386719 357.957031 C 221.496094 358.839844 218.304688 358.585938 215.570312 357.132812 L 36.6875 262.40625 C 33.054688 260.484375 30.703125 256.734375 30.546875 252.617188 C 30.390625 248.5 32.472656 244.597656 35.960938 242.417969 L 207.433594 134.855469 C 210.910156 132.675781 215.339844 132.503906 218.972656 134.429688 C 222.605469 136.351562 224.957031 140.097656 225.113281 144.203125 L 232.535156 346.488281 C 232.679688 350.605469 230.613281 354.511719 227.136719 356.691406 C 226.28125 357.230469 225.355469 357.644531 224.414062 357.929688 Z M 71.179688 257.148438 L 200.566406 325.648438 C 205.28125 328.140625 210.925781 324.605469 210.726562 319.277344 L 205.355469 172.980469 C 205.152344 167.652344 199.269531 164.53125 194.753906 167.367188 L 70.738281 245.152344 C 66.222656 247.988281 66.464844 254.640625 71.179688 257.136719 Z M 47.03125 260.042969 Z M 218.488281 152.492188 Z M 218.488281 152.492188 " clip-rule="nonzero"/></clipPath></defs><g clip-path="url(#dc19773d52)"><g clip-path="url(#37167497cf)"><g transform="matrix(1, 0, 0, 1, 4, 4)"><g clip-path="url(#d678c84cb2)"><g clip-path="url(#5e6c5233e2)"><g clip-path="url(#ec8979bc94)"><path fill="#000000" d="M 0.152344 0.152344 L 365.128906 0.152344 L 365.128906 365.128906 L 0.152344 365.128906 Z M 0.152344 0.152344 " fill-opacity="1" fill-rule="nonzero"/></g></g></g></g></g></g><g clip-path="url(#92075d23e0)"><g clip-path="url(#2fc92513d4)"><path fill="#ffffff" d="M 85.695312 15.597656 L 85.695312 255.269531 L 327.546875 255.269531 L 327.546875 15.597656 Z M 85.695312 15.597656 " fill-opacity="1" fill-rule="nonzero"/></g></g><g clip-path="url(#a94755ef7e)"><g clip-path="url(#e6983df654)"><path fill="#ffffff" d="M 30.546875 132.503906 L 30.546875 358.839844 L 232.679688 358.839844 L 232.679688 132.503906 Z M 30.546875 132.503906 " fill-opacity="1" fill-rule="nonzero"/></g></g></svg>